<mxfile host="app.diagrams.net" modified="2023-12-12T07:34:30.489Z" agent="Mozilla/5.0 (Windows NT 10.0; Win64; x64) AppleWebKit/537.36 (KHTML, like Gecko) Chrome/119.0.0.0 Safari/537.36" etag="HtAygmIqFV4yGmXiOffl" version="22.1.7" type="device">
  <diagram name="Page-1" id="pub1l7ad4_DdruCasPtF">
    <mxGraphModel dx="794" dy="503" grid="1" gridSize="10" guides="1" tooltips="1" connect="1" arrows="1" fold="1" page="1" pageScale="1" pageWidth="850" pageHeight="1100" math="0" shadow="0">
      <root>
        <mxCell id="0" />
        <mxCell id="1" parent="0" />
        <mxCell id="12tAVDHy_seTnwjO3RKA-11" style="edgeStyle=orthogonalEdgeStyle;rounded=0;orthogonalLoop=1;jettySize=auto;html=1;" edge="1" parent="1" source="12tAVDHy_seTnwjO3RKA-1" target="12tAVDHy_seTnwjO3RKA-12">
          <mxGeometry relative="1" as="geometry">
            <mxPoint x="420" y="85" as="targetPoint" />
          </mxGeometry>
        </mxCell>
        <mxCell id="12tAVDHy_seTnwjO3RKA-1" value="" style="rounded=0;whiteSpace=wrap;html=1;" vertex="1" parent="1">
          <mxGeometry x="30" y="40" width="210" height="90" as="geometry" />
        </mxCell>
        <mxCell id="12tAVDHy_seTnwjO3RKA-2" value="Epohhn" style="text;html=1;strokeColor=none;fillColor=none;align=center;verticalAlign=middle;whiteSpace=wrap;rounded=0;" vertex="1" parent="1">
          <mxGeometry x="100" y="10" width="60" height="30" as="geometry" />
        </mxCell>
        <mxCell id="12tAVDHy_seTnwjO3RKA-3" value="" style="whiteSpace=wrap;html=1;aspect=fixed;" vertex="1" parent="1">
          <mxGeometry x="40" y="50" width="70" height="70" as="geometry" />
        </mxCell>
        <mxCell id="12tAVDHy_seTnwjO3RKA-4" value="" style="whiteSpace=wrap;html=1;aspect=fixed;" vertex="1" parent="1">
          <mxGeometry x="140" y="50" width="70" height="70" as="geometry" />
        </mxCell>
        <mxCell id="12tAVDHy_seTnwjO3RKA-5" value="Frontend" style="text;html=1;strokeColor=none;fillColor=none;align=center;verticalAlign=middle;whiteSpace=wrap;rounded=0;" vertex="1" parent="1">
          <mxGeometry x="45" y="70" width="60" height="30" as="geometry" />
        </mxCell>
        <mxCell id="12tAVDHy_seTnwjO3RKA-6" value="backend" style="text;html=1;strokeColor=none;fillColor=none;align=center;verticalAlign=middle;whiteSpace=wrap;rounded=0;" vertex="1" parent="1">
          <mxGeometry x="145" y="70" width="60" height="30" as="geometry" />
        </mxCell>
        <mxCell id="12tAVDHy_seTnwjO3RKA-7" value="Both are hosted" style="text;html=1;strokeColor=none;fillColor=none;align=center;verticalAlign=middle;whiteSpace=wrap;rounded=0;" vertex="1" parent="1">
          <mxGeometry x="85" y="140" width="60" height="30" as="geometry" />
        </mxCell>
        <mxCell id="12tAVDHy_seTnwjO3RKA-8" value="" style="rounded=0;whiteSpace=wrap;html=1;" vertex="1" parent="1">
          <mxGeometry x="500" y="200" width="210" height="120" as="geometry" />
        </mxCell>
        <mxCell id="12tAVDHy_seTnwjO3RKA-9" value="some remote client" style="text;html=1;strokeColor=none;fillColor=none;align=center;verticalAlign=middle;whiteSpace=wrap;rounded=0;" vertex="1" parent="1">
          <mxGeometry x="580" y="330" width="60" height="30" as="geometry" />
        </mxCell>
        <mxCell id="12tAVDHy_seTnwjO3RKA-12" value="" style="shape=cylinder3;whiteSpace=wrap;html=1;boundedLbl=1;backgroundOutline=1;size=15;" vertex="1" parent="1">
          <mxGeometry x="390" y="45" width="60" height="80" as="geometry" />
        </mxCell>
        <mxCell id="12tAVDHy_seTnwjO3RKA-14" style="edgeStyle=orthogonalEdgeStyle;rounded=0;orthogonalLoop=1;jettySize=auto;html=1;entryX=0.5;entryY=0;entryDx=0;entryDy=0;" edge="1" parent="1" source="12tAVDHy_seTnwjO3RKA-13" target="12tAVDHy_seTnwjO3RKA-8">
          <mxGeometry relative="1" as="geometry" />
        </mxCell>
        <mxCell id="12tAVDHy_seTnwjO3RKA-13" value="SDK" style="text;html=1;strokeColor=none;fillColor=none;align=center;verticalAlign=middle;whiteSpace=wrap;rounded=0;" vertex="1" parent="1">
          <mxGeometry x="390" y="80" width="60" height="30" as="geometry" />
        </mxCell>
        <mxCell id="12tAVDHy_seTnwjO3RKA-15" value="By using our sdk client can use epohhn" style="text;html=1;strokeColor=none;fillColor=none;align=center;verticalAlign=middle;whiteSpace=wrap;rounded=0;" vertex="1" parent="1">
          <mxGeometry x="555" y="245" width="100" height="30" as="geometry" />
        </mxCell>
        <mxCell id="12tAVDHy_seTnwjO3RKA-16" value="Secure by KEY" style="text;html=1;strokeColor=none;fillColor=none;align=center;verticalAlign=middle;whiteSpace=wrap;rounded=0;" vertex="1" parent="1">
          <mxGeometry x="520" y="60" width="60" height="30" as="geometry" />
        </mxCell>
        <mxCell id="12tAVDHy_seTnwjO3RKA-19" value="" style="shape=or;whiteSpace=wrap;html=1;" vertex="1" parent="1">
          <mxGeometry x="270" y="180" width="60" height="70" as="geometry" />
        </mxCell>
        <mxCell id="12tAVDHy_seTnwjO3RKA-20" value="KEY" style="text;html=1;strokeColor=none;fillColor=none;align=center;verticalAlign=middle;whiteSpace=wrap;rounded=0;" vertex="1" parent="1">
          <mxGeometry x="270" y="200" width="60" height="30" as="geometry" />
        </mxCell>
        <mxCell id="12tAVDHy_seTnwjO3RKA-22" style="edgeStyle=orthogonalEdgeStyle;rounded=0;orthogonalLoop=1;jettySize=auto;html=1;entryX=0.841;entryY=1.048;entryDx=0;entryDy=0;entryPerimeter=0;" edge="1" parent="1" source="12tAVDHy_seTnwjO3RKA-20" target="12tAVDHy_seTnwjO3RKA-1">
          <mxGeometry relative="1" as="geometry" />
        </mxCell>
        <mxCell id="12tAVDHy_seTnwjO3RKA-23" style="edgeStyle=orthogonalEdgeStyle;rounded=0;orthogonalLoop=1;jettySize=auto;html=1;entryX=0.013;entryY=0.614;entryDx=0;entryDy=0;entryPerimeter=0;" edge="1" parent="1" source="12tAVDHy_seTnwjO3RKA-19" target="12tAVDHy_seTnwjO3RKA-8">
          <mxGeometry relative="1" as="geometry" />
        </mxCell>
      </root>
    </mxGraphModel>
  </diagram>
</mxfile>
